<svg xmlns="http://www.w3.org/2000/svg" viewBox="0 0 80 80" class="orcarestra-ensemble-icon">
  <defs>
    <linearGradient id="b1" x1="0%" y1="0%" x2="0%" y2="100%">
      <stop offset="0%" style="stop-color:#2dd4bf"/>
      <stop offset="100%" style="stop-color:#25b59a"/>
    </linearGradient>
    <linearGradient id="b2" x1="0%" y1="0%" x2="0%" y2="100%">
      <stop offset="0%" style="stop-color:#5ba8e0"/>
      <stop offset="100%" style="stop-color:#4d91cc"/>
    </linearGradient>
    <linearGradient id="b3" x1="0%" y1="0%" x2="0%" y2="100%">
      <stop offset="0%" style="stop-color:#9d85e8"/>
      <stop offset="100%" style="stop-color:#8a70df"/>
    </linearGradient>
    <linearGradient id="b4" x1="0%" y1="0%" x2="0%" y2="100%">
      <stop offset="0%" style="stop-color:#be88e3"/>
      <stop offset="100%" style="stop-color:#ae71d6"/>
    </linearGradient>
    <linearGradient id="b5" x1="0%" y1="0%" x2="0%" y2="100%">
      <stop offset="0%" style="stop-color:#e878ad"/>
      <stop offset="100%" style="stop-color:#e1629d"/>
    </linearGradient>
    <linearGradient id="b6" x1="0%" y1="0%" x2="0%" y2="100%">
      <stop offset="0%" style="stop-color:#f08d8f"/>
      <stop offset="100%" style="stop-color:#ed787a"/>
    </linearGradient>
    <linearGradient id="b7" x1="0%" y1="0%" x2="0%" y2="100%">
      <stop offset="0%" style="stop-color:#f4a35e"/>
      <stop offset="100%" style="stop-color:#f19149"/>
    </linearGradient>
    <linearGradient id="b8" x1="0%" y1="0%" x2="0%" y2="100%">
      <stop offset="0%" style="stop-color:#f7bc72"/>
      <stop offset="100%" style="stop-color:#f5ac5d"/>
    </linearGradient>
  </defs>

  <!-- Centered waveform bars -->
  <g transform="translate(5, 40)">
    <rect x="0" y="-10" width="6" height="20" rx="3" fill="url(#b1)"/>
    <rect x="10" y="-16" width="6" height="32" rx="3" fill="url(#b2)"/>
    <rect x="20" y="-22" width="6" height="44" rx="3" fill="url(#b3)"/>
    <rect x="30" y="-28" width="6" height="56" rx="3" fill="url(#b4)"/>
    <rect x="40" y="-24" width="6" height="48" rx="3" fill="url(#b5)"/>
    <rect x="50" y="-18" width="6" height="36" rx="3" fill="url(#b6)"/>
    <rect x="60" y="-12" width="6" height="24" rx="3" fill="url(#b7)"/>
    <rect x="70" y="-8" width="6" height="16" rx="3" fill="url(#b8)"/>
  </g>
</svg>
